_________________________  Visit us at _________________________
  
http://p2pdl.com  ____________________________  http://p2pdl.com


Special Chabbis 2013 BRRip 720p x264 Hindi ESubs - ViZNU

Genre: Crime | Drama | Thriller
Plot: Based on a real life group of con artists who pulled 
off many clever robberies during 1980's, and robbed famous 
businessmen and politicians by pretending to be the CBI 
or Income tax.
Director: Neeraj Pandey
Stars: Akshay Kumar, Manoj Bajpayee, Anupam Kher
Rated: N/A

Info: 
http://www.imdb.com/title/tt2377938/

General
Complete name                  : ViZNU-Special-Chabbis-2013.mp4
Format                         : MPEG-4
Format profile                 : Base Media
Codec ID                       : isom
File size                      : 802 MiB
Duration                       : 2h 23mn
Overall bit rate mode          : Variable
Overall bit rate               : 781 Kbps

Source                         : 720p BluRay DDR (Thanks)

Video
Format                         : AVC
Format/Info                    : Advanced Video Codec
Format profile                 : High 10@L4.1
Codec ID/Info                  : Advanced Video Coding
Duration                       : 2h 23mn
Bit rate                       : 699 Kbps
Maximum bit rate               : 4 519 Kbps
Width                          : 1 280 pixels
Height                         : 544 pixels
Display aspect ratio           : 2.35:1
Frame rate mode                : Constant
Frame rate                     : 24.000 fps
Bit depth                      : 10 bits
Stream size                    : 718 MiB (89%)
Writing library                : x264 core 130 r2273 b3065e6

Audio
Format                         : AAC
Duration                       : 2h 23mn
Bit rate mode                  : Variable
Bit rate                       : 79.3 Kbps
Channel(s)                     : 2 channels
Channel positions              : Front: L R
Sampling rate                  : 48.0 KHz / 24.0 KHz
Stream size                    : 81.4 MiB (10%)
Language                       : Hindi

Subtitle                       : Yes (English)

Screens: 
http://www.ultraimg.com/images/4tBso.jpg 
http://www.ultraimg.com/images/z3wAc.jpg 
http://www.ultraimg.com/images/HtAzT.jpg 
http://www.ultraimg.com/images/l73SM.jpg 
http://www.ultraimg.com/images/G59OF.jpg 
http://www.ultraimg.com/images/tkqPX.jpg
----------------------------------------------------------------------------------------------------
Encoded using revolutionary 10bit encoding, which enables us to provide you more crispier 
and sharper images at small sizes, just make sure you follow our instructions without a fault.
Recommend to you to use latest version of VLC player. Install K-Lite Codec Pack or shark007 codecs
in case of any kind of problem in playback (For non-VLC Media Player users). Alternatively, install
Core AVC codecs, the fastest decoder that there is coupled with Community Center Codec Pack and play
on Windows Media Player Classic. Check sample to be sure.
Enjoy!

Encoder Notes:Looking For Early Access To Anything You Can Provide DVDScr, R5, DVDR, BluRay, Direct
Audio, Music Releases and Seedboxes. We require dedicated servers, so as to do more 
and fast releases of movies.
If You Got anything to offer please contact us at "prg@hush.com".

Fan Page:   
http://www.fb.me/p2pdl